<svg xmlns="http://www.w3.org/2000/svg" viewBox="0 0 640 420" role="img" aria-labelledby="title desc"><title id="title">轻型研发空间</title><desc id="desc">明亮研发工位和白板墙</desc><rect width="640" height="420" fill="#e7edf4"/><rect y="292" width="640" height="128" fill="#b9c7d2"/><rect x="34" y="38" width="280" height="198" rx="8" fill="#d4eff7" stroke="#fff" stroke-width="9"/><path d="M174 38v198M34 137h280" stroke="#fff" stroke-width="8"/><rect x="363" y="50" width="227" height="165" rx="10" fill="#fbfcfe" stroke="#ced9e2" stroke-width="7"/><path d="M400 89h152M400 125h104M400 161h142" stroke="#79a6bd" stroke-width="9" stroke-linecap="round"/><rect x="80" y="276" width="208" height="18" rx="8" fill="#506b7d"/><path d="M102 294v86M266 294v86" stroke="#506b7d" stroke-width="12"/><rect x="338" y="276" width="190" height="18" rx="8" fill="#506b7d"/><path d="M360 294v86M506 294v86" stroke="#506b7d" stroke-width="12"/><circle cx="130" cy="265" r="22" fill="#e6a86d"/><circle cx="410" cy="265" r="22" fill="#de7d70"/><rect x="44" y="320" width="30" height="54" rx="8" fill="#769b88"/><circle cx="59" cy="304" r="31" fill="#6aa076"/></svg>
